<svg width="249" height="231" viewBox="0 0 249 231" fill="none" xmlns="http://www.w3.org/2000/svg">
<g clip-path="url(#clip0)">
<path d="M78.8306 163.925V163.844C78.8306 157.58 83.6304 152.698 90.1385 152.698C94.5316 152.698 97.3382 154.529 99.25 157.173L94.7756 160.63C93.5553 159.085 92.1317 158.108 90.0979 158.108C87.0878 158.108 84.9727 160.671 84.9727 163.762V163.844C84.9727 167.057 87.0878 169.579 90.0979 169.579C92.335 169.579 93.6367 168.521 94.9383 166.976L99.4127 170.148C97.3789 172.955 94.6536 174.989 89.9352 174.989C83.7524 175.03 78.8306 170.352 78.8306 163.925Z" fill="#2BB673"/>
<path d="M109.785 153.024H115.52L124.632 174.623H118.246L116.7 170.799H108.443L106.897 174.623H100.633L109.785 153.024ZM114.992 166.162L112.592 160.061L110.192 166.162H114.992Z" fill="#2BB673"/>
<path d="M125.405 171.409L128.7 167.464C130.815 169.132 133.174 170.026 135.655 170.026C137.242 170.026 138.096 169.457 138.096 168.562V168.521C138.096 167.627 137.404 167.138 134.476 166.488C129.92 165.43 126.381 164.169 126.381 159.735V159.654C126.381 155.668 129.554 152.78 134.679 152.78C138.34 152.78 141.187 153.756 143.506 155.627L140.536 159.817C138.584 158.434 136.428 157.702 134.516 157.702C133.093 157.702 132.36 158.312 132.36 159.085V159.166C132.36 160.142 133.093 160.59 136.062 161.24C140.984 162.298 144.075 163.925 144.075 167.911V167.993C144.075 172.386 140.618 174.989 135.411 174.989C131.628 174.989 128.008 173.769 125.405 171.409Z" fill="#2BB673"/>
<path d="M147.614 153.146H153.552V161.159H161.2V153.146H167.138V174.582H161.2V166.447H153.552V174.582H147.614V153.146Z" fill="#2BB673"/>
<path d="M27.7412 184.141H38.7645C41.4491 184.141 43.3609 184.833 44.6218 186.094C45.476 186.948 46.0048 188.087 46.0048 189.551V189.632C46.0048 192.114 44.5811 193.578 42.71 194.432C45.3133 195.286 46.981 196.751 46.981 199.679V199.761C46.981 203.422 43.971 205.699 38.8458 205.699H27.7412V184.141ZM37.3001 192.683C39.0899 192.683 40.1068 192.073 40.1068 190.812V190.771C40.1068 189.592 39.1712 188.941 37.4221 188.941H33.5579V192.724H37.3001V192.683ZM38.1543 200.818C39.9441 200.818 41.0016 200.127 41.0016 198.866V198.784C41.0016 197.605 40.0661 196.832 38.073 196.832H33.5579V200.778H38.1543V200.818Z" fill="#1562AB"/>
<path d="M52.0654 196.181V184.141H58.1262V196.059C58.1262 199.151 59.6719 200.615 62.0718 200.615C64.4717 200.615 66.0174 199.191 66.0174 196.181V184.1H72.0781V196.018C72.0781 202.933 68.1325 205.984 62.0311 205.984C55.889 205.984 52.0654 202.893 52.0654 196.181Z" fill="#1562AB"/>
<path d="M84.444 197.564L76.2681 184.141H83.061L87.4947 191.951L91.9284 184.141H98.5993L90.4234 197.483V205.618H84.444V197.564Z" fill="#1562AB"/>
<path d="M103.073 184.141H120.361V189.185H108.971V192.439H119.262V197.117H108.971V200.534H120.523V205.577H103.114V184.141H103.073Z" fill="#1562AB"/>
<path d="M126.218 184.141H136.387C139.682 184.141 141.919 184.995 143.384 186.46C144.645 187.68 145.295 189.348 145.295 191.463V191.544C145.295 194.839 143.546 196.995 140.862 198.134L145.987 205.618H139.113L134.801 199.11H132.198V205.618H126.259V184.141H126.218ZM136.062 194.432C138.096 194.432 139.235 193.456 139.235 191.87V191.829C139.235 190.161 138.014 189.266 136.021 189.266H132.116V194.432H136.062Z" fill="#1562AB"/>
<path d="M149.282 202.405L152.577 198.459C154.692 200.127 157.051 201.022 159.532 201.022C161.119 201.022 161.973 200.452 161.973 199.557V199.476C161.973 198.581 161.281 198.093 158.353 197.401C153.797 196.344 150.258 195.083 150.258 190.649V190.568C150.258 186.582 153.431 183.694 158.556 183.694C162.217 183.694 165.064 184.67 167.383 186.541L164.413 190.731C162.461 189.348 160.305 188.615 158.393 188.615C156.97 188.615 156.237 189.226 156.237 189.998V190.08C156.237 191.056 156.97 191.503 159.939 192.154C164.861 193.212 167.952 194.839 167.952 198.825V198.906C167.952 203.3 164.495 205.903 159.288 205.903C155.546 205.984 151.926 204.764 149.282 202.405Z" fill="#1562AB"/>
<path d="M80.2539 93.9213H96.8091V98.9244H85.9892V102.423H95.7515V107.182H85.9892V114.585H80.2539V93.9213Z" fill="#1562AB"/>
<path d="M100.552 93.9213H106.287V109.582H116.293V114.585H100.552V93.9213Z" fill="#1562AB"/>
<path d="M118.612 104.294V104.253C118.612 98.3143 123.412 93.5145 129.757 93.5145C136.103 93.5145 140.862 98.2736 140.862 104.212V104.253C140.862 110.192 136.062 114.992 129.716 114.992C123.371 114.992 118.612 110.232 118.612 104.294ZM135.045 104.294V104.253C135.045 101.284 132.889 98.6804 129.716 98.6804C126.584 98.6804 124.469 101.202 124.469 104.212V104.253C124.469 107.222 126.625 109.826 129.757 109.826C132.97 109.826 135.045 107.304 135.045 104.294Z" fill="#1562AB"/>
<path d="M144.482 93.9213H154.244C157.417 93.9213 159.572 94.7348 160.996 96.1585C162.216 97.3381 162.827 98.9244 162.827 100.958V100.999C162.827 104.172 161.159 106.246 158.556 107.344L163.477 114.544H156.847L152.698 108.28H150.176V114.544H144.441V93.9213H144.482ZM154 103.846C155.952 103.846 157.091 102.911 157.091 101.406V101.365C157.091 99.738 155.912 98.9244 154 98.9244H150.258V103.887H154V103.846Z" fill="#1562AB"/>
<path d="M167.017 93.9213H172.793V114.585H167.017V93.9213Z" fill="#1562AB"/>
<path d="M177.145 93.9213H185.117C192.52 93.9213 196.791 98.1923 196.791 104.131V104.172C196.791 110.151 192.439 114.585 184.995 114.585H177.145V93.9213ZM185.198 109.5C188.615 109.5 190.893 107.629 190.893 104.253V104.212C190.893 100.918 188.615 98.9651 185.198 98.9651H182.88V109.46H185.198V109.5Z" fill="#1562AB"/>
<path d="M205.414 93.7586H210.946L219.732 114.585H213.59L212.085 110.883H204.113L202.648 114.585H196.628L205.414 93.7586ZM210.418 106.409L208.099 100.552L205.781 106.409H210.418Z" fill="#1562AB"/>
<path d="M80.2539 123.452H85.9892V131.181H93.3516V123.452H99.087V144.116H93.3516V136.265H85.9892V144.116H80.2539V123.452Z" fill="#1562AB"/>
<path d="M101.406 133.825V133.784C101.406 127.845 106.206 123.045 112.551 123.045C118.897 123.045 123.656 127.805 123.656 133.743V133.784C123.656 139.723 118.856 144.522 112.51 144.522C106.124 144.522 101.406 139.763 101.406 133.825ZM117.839 133.825V133.784C117.839 130.815 115.683 128.211 112.51 128.211C109.378 128.211 107.263 130.733 107.263 133.743V133.784C107.263 136.753 109.419 139.357 112.551 139.357C115.724 139.357 117.839 136.835 117.839 133.825Z" fill="#1562AB"/>
<path d="M126.056 123.452H132.116L137.038 131.465L141.96 123.452H148.062V144.116H142.367V132.238L137.079 140.333H136.957L131.71 132.32V144.116H126.096V123.452H126.056Z" fill="#1562AB"/>
<path d="M151.112 123.452H167.748V128.333H156.806V131.465H166.731V135.98H156.806V139.275H167.911V144.156H151.152V123.452H151.112Z" fill="#1562AB"/>
<path d="M26.8462 77.3661H220.18L121.662 22.86L26.8462 77.3661Z" fill="#1562AB"/>
<path d="M215.624 127.56V123.737H181.985H178.284V127.56V201.591V205.455H181.985V127.56H215.624Z" fill="#1562AB"/>
<path d="M178.284 205.455H200.574V199.842H189.429L178.284 205.455Z" fill="#1562AB"/>
<path d="M201.632 122.029V211.963L215.624 205.496V127.52L201.632 122.029Z" fill="#2BB673"/>
<path d="M200.33 211.76L201.632 211.963V122.029L200.33 122.232V211.76Z" fill="#00214D"/>
<path d="M204.398 167.748C204.869 167.748 205.252 167.311 205.252 166.772C205.252 166.233 204.869 165.796 204.398 165.796C203.926 165.796 203.543 166.233 203.543 166.772C203.543 167.311 203.926 167.748 204.398 167.748Z" fill="#00214D"/>
<path d="M205.618 168.196C206.382 168.196 207.001 167.559 207.001 166.772C207.001 165.986 206.382 165.349 205.618 165.349C204.854 165.349 204.235 165.986 204.235 166.772C204.235 167.559 204.854 168.196 205.618 168.196Z" fill="#1562AB"/>
<path d="M69.8411 173.809H27.3345V93.7179H69.8004V173.809H69.8411ZM31.0767 169.904H66.0989V97.6635H31.0767V169.904Z" fill="#FAAD68"/>
<path d="M49.2588 95.4263H47.9165V172.02H49.2588V95.4263Z" fill="#FAAD68"/>
<path d="M67.7665 132.97H29.3682V134.394H67.7665V132.97Z" fill="#FAAD68"/>
<path d="M219.367 123.737H215.625V205.496H219.367V123.737Z" fill="#1562AB"/>
</g>
<defs>
<clipPath id="clip0">
<rect width="248.938" height="231" fill="white"/>
</clipPath>
</defs>
</svg>
