<?xml version="1.0" encoding="utf-8"?>
<!-- Generator: Adobe Illustrator 24.2.1, SVG Export Plug-In . SVG Version: 6.00 Build 0)  -->
<svg version="1.1" id="Layer_1" xmlns="http://www.w3.org/2000/svg" xmlns:xlink="http://www.w3.org/1999/xlink" x="0px" y="0px"
	 viewBox="0 0 576.7 567.9" style="enable-background:new 0 0 576.7 567.9;" xml:space="preserve">
<style type="text/css">
	.st0{fill:#2BB673;}
	.st1{fill:#1562AB;}
	.st2{fill:#008AA1;}
	.st3{fill:#00214D;}
	.st4{fill:#008096;}
	.st5{fill:#FAAD68;}
</style>
<path class="st0" d="M154.4,423.2V423c0-18.7,14.4-33.4,33.8-33.4c13.1,0,21.5,5.5,27.3,13.4l-13.4,10.3c-3.7-4.6-7.9-7.5-14-7.5
	c-9,0-15.3,7.7-15.3,16.9v0.2c0,9.6,6.3,17.2,15.3,17.2c6.7,0,10.6-3.2,14.5-7.8l13.4,9.5c-6.1,8.4-14.2,14.5-28.4,14.5
	C169.2,456.5,154.4,442.5,154.4,423.2z"/>
<path class="st0" d="M247.1,390.5h17.2l27.3,64.6h-19.1l-4.6-11.4h-24.7l-4.6,11.4h-18.7L247.1,390.5z M262.7,429.9l-7.2-18.3
	l-7.2,18.3H262.7z"/>
<path class="st0" d="M293.8,445.6l9.9-11.8c6.3,5,13.4,7.7,20.8,7.7c4.7,0,7.3-1.7,7.3-4.4V437c0-2.7-2.1-4.1-10.8-6.1
	c-13.6-3.2-24.2-6.9-24.2-20.2v-0.2c0-11.9,9.5-20.6,24.8-20.6c11,0,19.5,2.9,26.4,8.5l-8.9,12.5c-5.8-4.1-12.3-6.3-18-6.3
	c-4.3,0-6.5,1.8-6.5,4.1v0.2c0,2.9,2.2,4.3,11.1,6.2c14.7,3.2,24,8,24,20v0.2c0,13.1-10.3,20.9-25.9,20.9
	C312.4,456.2,301.6,452.7,293.8,445.6z"/>
<path class="st0" d="M360.3,391h17.8v24H401v-24h17.8v64.2H401v-24.3h-22.9v24.3h-17.8V391z"/>
<path class="st1" d="M0.1,483.5h33.1c8.1,0,13.8,2.1,17.6,5.9c2.6,2.6,4.2,6,4.2,10.4v0.2c0,7.5-4.3,11.8-9.9,14.4
	c7.8,2.6,12.8,7,12.8,15.8v0.2c0,11-9,17.8-24.4,17.8H0.1V483.5z M28.8,509.3c5.4,0,8.4-1.8,8.4-5.6v-0.2c0-3.5-2.8-5.5-8.1-5.5
	H17.5v11.4L28.8,509.3L28.8,509.3z M31.3,533.7c5.4,0,8.6-2.1,8.6-5.9v-0.2c0-3.5-2.8-5.9-8.8-5.9H17.5v11.8h13.8V533.7z"/>
<path class="st1" d="M73.1,519.8v-36.2h18.2v35.8c0,9.3,4.6,13.7,11.8,13.7s11.8-4.3,11.8-13.3v-36.3h18.2v35.8
	c0,20.8-11.8,29.9-30.2,29.9C84.6,549.2,73.1,539.9,73.1,519.8z"/>
<path class="st1" d="M170.4,523.9l-24.6-40.3h20.4l13.3,23.5l13.3-23.5h20l-24.6,40.1v24.4h-18L170.4,523.9L170.4,523.9z"/>
<path class="st1" d="M226.3,483.5h51.9v15.1H244v9.8h30.9v14H244v10.3h34.7v15.1h-52.3v-64.4H226.3z"/>
<path class="st1" d="M295.8,483.5h30.5c9.9,0,16.6,2.6,21,7c3.8,3.7,5.7,8.7,5.7,15v0.2c0,9.9-5.3,16.4-13.3,19.8l15.4,22.5h-20.6
	l-12.9-19.5h-7.8V548h-17.8v-64.5H295.8z M325.4,514.5c6.1,0,9.5-2.9,9.5-7.7v-0.1c0-5-3.7-7.7-9.7-7.7h-11.7v15.5L325.4,514.5
	L325.4,514.5z"/>
<path class="st1" d="M365.1,538.5l9.9-11.8c6.4,5,13.4,7.7,20.9,7.7c4.8,0,7.3-1.7,7.3-4.4v-0.2c0-2.7-2.1-4.2-10.9-6.2
	c-13.7-3.2-24.3-7-24.3-20.3v-0.2c0-12,9.5-20.6,24.9-20.6c11,0,19.5,2.9,26.5,8.6l-8.9,12.6c-5.9-4.2-12.3-6.4-18.1-6.4
	c-4.3,0-6.5,1.8-6.5,4.2v0.2c0,2.9,2.2,4.3,11.1,6.2c14.8,3.2,24.1,8.1,24.1,20v0.2c0,13.2-10.4,21-26,21
	C383.9,549.1,373,545.6,365.1,538.5z"/>
<path class="st1" d="M158.7,213.6h49.6v15h-32.4V239h29.2v14.2h-29.2v22.2h-17.2L158.7,213.6L158.7,213.6z"/>
<path class="st1" d="M219.4,213.6h17.2v46.9h29.9v15h-47.1V213.6z"/>
<path class="st1" d="M273.5,244.7v-0.1c0-17.8,14.4-32.1,33.4-32.1s33.2,14.2,33.2,32v0.1c0,17.8-14.4,32.1-33.4,32.1
	C287.7,276.8,273.5,262.5,273.5,244.7z M322.7,244.7v-0.1c0-8.9-6.5-16.7-15.9-16.7c-9.4,0-15.7,7.5-15.7,16.6v0.1
	c0,8.9,6.5,16.7,15.8,16.7C316.5,261.3,322.7,253.6,322.7,244.7z"/>
<path class="st1" d="M350.9,213.6h29.2c9.5,0,15.9,2.4,20.2,6.7c3.7,3.5,5.5,8.3,5.5,14.4v0.1c0,9.5-5,15.7-12.8,19l14.7,21.5h-19.8
	l-12.4-18.7H368v18.7h-17.2v-61.7H350.9z M379.4,243.3c5.8,0,9.3-2.8,9.3-7.3v-0.1c0-4.9-3.5-7.3-9.3-7.3h-11.2v14.9h11.2V243.3z"/>
<path class="st1" d="M418.4,213.6h17.3v61.8h-17.3V213.6z"/>
<path class="st1" d="M448.7,213.6h23.9c22.2,0,34.9,12.8,34.9,30.6v0.1c0,17.9-13,31.2-35.3,31.2h-23.5L448.7,213.6L448.7,213.6z
	 M472.8,260.3c10.2,0,17-5.6,17-15.7v-0.1c0-9.9-6.8-15.7-17-15.7h-6.9v31.4h6.9V260.3z"/>
<path class="st1" d="M533.3,213.2h16.6l26.3,62.3h-18.4l-4.5-11.1h-23.9l-4.4,11.1h-18L533.3,213.2z M548.3,251.1l-6.9-17.5
	l-6.9,17.5H548.3z"/>
<path class="st1" d="M158.7,302.1h17.2v23.1h22v-23.1H215v61.8h-17.2v-23.5h-22v23.5h-17.2V302.1z"/>
<path class="st1" d="M222,333.1V333c0-17.8,14.4-32.1,33.4-32.1s33.2,14.2,33.2,32v0.1c0,17.8-14.4,32.1-33.4,32.1
	C236.1,365.1,222,350.9,222,333.1z M271.2,333.1V333c0-8.9-6.5-16.7-15.9-16.7c-9.4,0-15.7,7.5-15.7,16.6v0.1
	c0,8.9,6.5,16.7,15.8,16.7C264.8,349.7,271.2,342,271.2,333.1z"/>
<path class="st1" d="M295.8,302.1h18.1l14.7,24l14.7-24h18.3v61.8h-17v-35.6l-15.8,24.2h-0.4l-15.7-24v35.3h-16.8v-61.8H295.8z"/>
<path class="st1" d="M370.8,302.1h49.8v14.6h-32.7v9.4h29.7v13.5h-29.7v9.9H421V364h-50.2v-62H370.8z"/>
<polygon class="st1" points="-1.2,164.1 577.5,164.1 288.5,1 "/>
<polygon class="st1" points="565.4,313.9 565.4,302.3 463.3,302.3 452.1,302.3 452.1,313.9 452.1,535.4 452.1,546.9 463.3,546.9 
	463.3,546.9 463.3,313.9 "/>
<polygon class="st1" points="452.1,546.9 519.7,546.9 519.7,530.1 485.9,530.1 "/>
<polygon class="st0" points="522.9,297.3 522.9,566.4 565.4,547.1 565.4,313.8 "/>
<path class="st2" d="M312.7,217.6"/>
<polygon class="st3" points="519,565.8 522.9,566.4 522.9,297.3 519,297.9 "/>
<g>
	<ellipse class="st3" cx="531.3" cy="431.1" rx="2.6" ry="2.9"/>
	<ellipse class="st1" cx="535" cy="431.1" rx="4.2" ry="4.3"/>
</g>
<g>
	<g>
		<path class="st4" d="M79.2,291.4"/>
	</g>
	<g>
		<path class="st2" d="M23.9,292.1"/>
	</g>
	<g>
		<path class="st5" d="M127.5,455H0.3V213.4h127.1V455H127.5z M11.5,443.2h104.8V225.3H11.5V443.2z"/>
	</g>
	<g>
		<rect x="61.9" y="218.6" class="st5" width="4" height="231"/>
	</g>
	<g>
		<rect x="6.4" y="331.8" class="st5" width="114.9" height="4.3"/>
	</g>
</g>
<rect x="565.4" y="302.3" class="st1" width="11.4" height="244.6"/>
</svg>
