<?xml version="1.0" encoding="utf-8"?>
<!-- Generator: Adobe Illustrator 24.2.1, SVG Export Plug-In . SVG Version: 6.00 Build 0)  -->
<svg version="1.1" id="Layer_1" xmlns="http://www.w3.org/2000/svg" xmlns:xlink="http://www.w3.org/1999/xlink" x="0px" y="0px"
	 viewBox="0 0 576.7 567.9" style="enable-background:new 0 0 576.7 567.9;" xml:space="preserve">
<style type="text/css">
	.st0{fill:#FFFFFF;}
</style>
<path class="st0" d="M188.1,440.1c-9,0-15.3-7.5-15.3-17.2v-0.2c0-9.3,6.3-16.9,15.3-16.9c6.1,0,10.3,2.9,14,7.5l13.4-10.3
	c-5.7-7.9-14.1-13.4-27.3-13.4c-19.5,0-33.8,14.6-33.8,33.4v0.2c0,19.2,14.7,33.2,33.2,33.1c14.1,0,22.3-6.1,28.4-14.5l-13.4-9.5
	C198.7,437,194.8,440.1,188.1,440.1z"/>
<path class="st0" d="M247.1,390.5l-27.4,64.6h18.7l4.6-11.4h24.7l4.6,11.4h19.1l-27.3-64.6H247.1z M248.3,429.9l7.2-18.3l7.2,18.3
	H248.3z"/>
<path class="st0" d="M349.7,435.4v-0.2c0-11.9-9.3-16.8-24-20c-8.9-1.9-11.1-3.3-11.1-6.2v-0.2c0-2.3,2.2-4.1,6.5-4.1
	c5.7,0,12.2,2.2,18,6.3l8.9-12.5c-6.9-5.6-15.5-8.5-26.4-8.5c-15.3,0-24.8,8.6-24.8,20.6v0.2c0,13.3,10.6,17,24.2,20.2
	c8.8,1.9,10.8,3.4,10.8,6.1v0.1c0,2.7-2.6,4.4-7.3,4.4c-7.4,0-14.5-2.7-20.8-7.7l-9.9,11.8c7.8,7.1,18.6,10.6,29.9,10.7
	C339.4,456.3,349.7,448.5,349.7,435.4z"/>
<polygon class="st0" points="378.1,430.8 401,430.8 401,455.1 418.7,455.1 418.7,391 401,391 401,414.9 378.1,414.9 378.1,391 
	360.3,391 360.3,455.1 378.1,455.1 "/>
<path class="st0" d="M45,514.4c5.6-2.6,9.9-7,9.9-14.4v-0.2c0-4.4-1.6-7.8-4.2-10.4c-3.8-3.8-9.5-5.9-17.6-5.9H0.1v64.7h33.4
	c15.4,0,24.4-6.8,24.4-17.8v-0.2C57.9,521.4,52.8,517,45,514.4z M17.5,497.9h11.6c5.3,0,8.1,2,8.1,5.5v0.2c0,3.8-3.1,5.6-8.4,5.6
	H17.5V497.9z M39.9,527.8c0,3.8-3.2,5.9-8.6,5.9v-0.1H17.5v-11.8h13.6c6,0,8.8,2.3,8.8,5.9V527.8z"/>
<path class="st0" d="M115,519.8c0,9-4.6,13.3-11.8,13.3c-7.2,0-11.8-4.4-11.8-13.7v-35.8H73.1v36.2c0,20.2,11.5,29.4,29.9,29.4
	c18.3,0,30.2-9.2,30.2-29.9v-35.8H115V519.8z"/>
<polygon class="st0" points="179.5,507.1 166.2,483.6 145.8,483.6 170.4,523.9 170.4,523.9 170.4,548.1 188.3,548.1 188.3,523.7 
	212.9,483.6 192.8,483.6 "/>
<polygon class="st0" points="244,522.5 274.9,522.5 274.9,508.4 244,508.4 244,498.6 278.2,498.6 278.2,483.5 226.4,483.5 
	226.4,547.9 278.7,547.9 278.7,532.7 244,532.7 "/>
<path class="st0" d="M353.1,505.7v-0.2c0-6.4-2-11.4-5.7-15c-4.4-4.4-11.1-7-21-7h-30.4V548h17.8v-19.5h7.8l12.9,19.5h20.6
	l-15.4-22.5C347.9,522.1,353.1,515.6,353.1,505.7z M334.9,506.8c0,4.8-3.4,7.7-9.5,7.7v0h-11.8V499h11.7c6,0,9.7,2.7,9.7,7.7V506.8z
	"/>
<path class="st0" d="M397.1,507.7c-8.9-2-11.1-3.3-11.1-6.2v-0.2c0-2.3,2.2-4.2,6.5-4.2c5.7,0,12.2,2.2,18.1,6.4l8.9-12.6
	c-7-5.6-15.5-8.6-26.5-8.6c-15.4,0-24.9,8.7-24.9,20.6v0.2c0,13.3,10.6,17.1,24.3,20.3c8.8,2.1,10.9,3.5,10.9,6.2v0.2
	c0,2.7-2.6,4.4-7.3,4.4c-7.5,0-14.5-2.7-20.9-7.7l-9.9,11.8c7.9,7.1,18.8,10.6,30.1,10.5c15.6,0,26-7.8,26-21v-0.2
	C421.2,515.7,411.9,510.9,397.1,507.7z"/>
<polygon class="st0" points="208.2,228.5 208.2,213.6 158.7,213.6 158.7,275.4 175.8,275.4 175.8,253.3 205.1,253.3 205.1,239 
	175.8,239 175.8,228.5 "/>
<polygon class="st0" points="266.5,260.4 236.6,260.4 236.6,213.6 219.4,213.6 219.4,275.4 266.5,275.4 "/>
<path class="st0" d="M340.1,244.6v-0.1c0-17.8-14.2-32-33.2-32c-19,0-33.4,14.4-33.4,32.1v0.1c0,17.8,14.2,32,33.2,32
	S340.1,262.4,340.1,244.6z M291,244.6v-0.1c0-9,6.3-16.6,15.7-16.6c9.5,0,15.9,7.8,15.9,16.7v0.1c0,8.9-6.2,16.6-15.8,16.6
	C297.5,261.3,291,253.5,291,244.6z"/>
<path class="st0" d="M405.8,234.8v-0.1c0-6.1-1.8-10.8-5.5-14.4c-4.3-4.3-10.7-6.7-20.2-6.7h-29.2h-0.1v61.7H368v-18.7h7.5
	l12.4,18.7h19.8L393,253.7C400.8,250.5,405.8,244.2,405.8,234.8z M388.7,236c0,4.5-3.4,7.3-9.3,7.3v0.1h-11.2v-14.9h11.2
	c5.7,0,9.3,2.4,9.3,7.3V236z"/>
<rect x="418.4" y="213.6" class="st0" width="17.3" height="61.8"/>
<path class="st0" d="M507.5,244.2v-0.1c0-17.8-12.8-30.6-34.9-30.6h-23.9v61.8h23.5C494.5,275.4,507.5,262.1,507.5,244.2z
	 M465.8,228.8h6.9c10.2,0,17,5.8,17,15.7v0.1c0,10.1-6.8,15.7-17,15.7v-0.1h-6.9V228.8z"/>
<path class="st0" d="M507,275.5h18l4.4-11.1h23.9l4.5,11.1h18.4l-26.3-62.3h-16.6L507,275.5z M541.3,233.5l6.9,17.5h-13.9
	L541.3,233.5z"/>
<polygon class="st0" points="215,363.9 215,302.1 197.9,302.1 197.9,325.2 175.8,325.2 175.8,302.1 158.7,302.1 158.7,363.9 
	175.8,363.9 175.8,340.4 197.9,340.4 197.9,363.9 "/>
<path class="st0" d="M255.3,300.9c-19,0-33.4,14.4-33.4,32.1v0.1c0,17.8,14.1,32,33.2,32c19,0,33.4-14.4,33.4-32.1v-0.1
	C288.6,315.1,274.3,300.9,255.3,300.9z M271.2,333.1c0,8.9-6.3,16.6-15.8,16.6c-9.4,0-15.8-7.8-15.8-16.7v-0.1
	c0-9,6.3-16.6,15.7-16.6c9.5,0,15.9,7.8,15.9,16.7V333.1z"/>
<polygon class="st0" points="361.6,363.9 361.6,302.1 343.4,302.1 328.6,326.1 313.9,302.1 295.9,302.1 295.9,363.9 312.7,363.9 
	312.7,328.6 328.4,352.6 328.8,352.6 344.6,328.4 344.6,363.9 "/>
<polygon class="st0" points="420.6,316.7 420.6,302.1 370.9,302.1 370.9,364 421,364 421,349.4 387.8,349.4 387.8,339.6 
	417.5,339.6 417.5,326.1 387.8,326.1 387.8,316.7 "/>
<polygon class="st0" points="288.5,1 -1.2,164.1 577.5,164.1 "/>
<path class="st0" d="M522.9,302.3v-5l-4,0.6v4.4h-55.7h-11.2v11.6v221.5v11.6h11.2H519v18.9l4,0.6V400v-86.1V302.3z M519,530.1
	h-33.1l-22.6,11.2V313.9H519V530.1z"/>
<path class="st0" d="M535,426.8c-1.2,0-2.3,0.6-3.1,1.4c-0.2-0.1-0.4-0.1-0.6-0.1c-1.4,0-2.6,1.3-2.6,2.9c0,1.6,1.2,2.9,2.6,2.9
	c0.2,0,0.4,0,0.6-0.1c0.8,0.9,1.9,1.4,3.1,1.4c2.3,0,4.2-1.9,4.2-4.3S537.4,426.8,535,426.8z"/>
<path class="st0" d="M127.4,455V213.4H0.3V455H127.4z M65.9,225.3h50.4v106.5H65.9V225.3z M65.9,336.1h50.4v107.1H65.9V336.1z
	 M11.5,225.3h50.4v106.5H11.5V225.3z M11.5,336.1h50.4v107.1H11.5V336.1z"/>
<polygon class="st0" points="565.4,302.3 535.8,302.3 565.4,313.8 565.4,313.9 565.4,380.6 565.4,546.9 576.8,546.9 576.8,302.3 "/>
</svg>
